<?xml version="1.0" encoding="UTF-8" standalone="no"?>
<svg
   xmlns:dc="http://purl.org/dc/elements/1.1/"
   xmlns:cc="http://creativecommons.org/ns#"
   xmlns:rdf="http://www.w3.org/1999/02/22-rdf-syntax-ns#"
   xmlns:svg="http://www.w3.org/2000/svg"
   xmlns="http://www.w3.org/2000/svg"
   xmlns:sodipodi="http://sodipodi.sourceforge.net/DTD/sodipodi-0.dtd"
   xmlns:inkscape="http://www.inkscape.org/namespaces/inkscape"
   version="1.1"
   id="Layer_1"
   x="0px"
   y="0px"
   width="149.167px"
   height="172.243px"
   viewBox="0 0 149.167 172.243"
   enable-background="new 0 0 149.167 172.243"
   xml:space="preserve"
   sodipodi:docname="logo.svg"
   inkscape:version="0.92.2 (5c3e80d, 2017-08-06)"><metadata
     id="metadata11"><rdf:RDF><cc:Work
         rdf:about=""><dc:format>image/svg+xml</dc:format><dc:type
           rdf:resource="http://purl.org/dc/dcmitype/StillImage" /></cc:Work></rdf:RDF></metadata><defs
     id="defs9" /><sodipodi:namedview
     pagecolor="#ffffff"
     bordercolor="#666666"
     borderopacity="1"
     objecttolerance="10"
     gridtolerance="10"
     guidetolerance="10"
     inkscape:pageopacity="0"
     inkscape:pageshadow="2"
     inkscape:window-width="1680"
     inkscape:window-height="987"
     id="namedview7"
     showgrid="false"
     inkscape:zoom="1.3701573"
     inkscape:cx="74.583504"
     inkscape:cy="86.121498"
     inkscape:window-x="-8"
     inkscape:window-y="32"
     inkscape:window-maximized="1"
     inkscape:current-layer="Layer_1" /><polygon
     fill="#585858"
     points="149.167,129.183 74.583,172.243 0,129.183 0,43.061 74.583,0 149.167,43.061 "
     id="polygon2" /><path
     inkscape:connector-curvature="0"
     d="m 66.867923,122.43022 -37.921724,-7.38074 2.036065,-10.94385 26.723364,5.34467 8.653279,-44.029936 -9.925821,3.817624 V 87.81709 H 45.743742 V 62.36627 L 73.994154,50.404379 c 1.52705,0 2.799591,-0.509017 4.326641,-0.509017 3.817622,0 6.871721,2.036067 9.162295,5.344675 l 5.344674,8.653282 c 4.32664,7.635244 12.979916,12.979919 23.414746,12.979919 V 87.81709 c -11.96188,0 -22.651216,-5.344675 -29.777453,-13.488935 L 83.15645,90.616681 94.609324,101.30603 v 40.72132 H 83.665467 V 109.4503 L 72.212597,98.760944 Z M 86.465057,47.095776 c -5.853688,0 -10.943853,-5.090166 -10.943853,-10.943857 0,-5.853686 5.090165,-10.689344 10.943853,-10.689344 5.853697,0 10.689347,4.835658 10.689347,10.689344 0,5.853691 -4.83565,10.943857 -10.689347,10.943857 z"
     id="path29"
     style="fill:#ffffff;stroke-width:0.16967213" /></svg>